M48
; DRILL file {KiCad (6.0.0-0)} date Sunday, 15 May 2022 at 09:39:38
; FORMAT={-:-/ absolute / metric / decimal}
; #@! TF.CreationDate,2022-05-15T09:39:38+01:00
; #@! TF.GenerationSoftware,Kicad,Pcbnew,(6.0.0-0)
; #@! TF.FileFunction,MixedPlating,1,2
FMAT,2
METRIC
; #@! TA.AperFunction,Plated,PTH,ComponentDrill
T1C0.600
; #@! TA.AperFunction,Plated,PTH,ComponentDrill
T2C0.800
; #@! TA.AperFunction,Plated,PTH,ComponentDrill
T3C0.900
; #@! TA.AperFunction,Plated,PTH,ComponentDrill
T4C1.000
; #@! TA.AperFunction,Plated,PTH,ComponentDrill
T5C1.100
; #@! TA.AperFunction,Plated,PTH,ComponentDrill
T6C1.500
%
G90
G05
T2
X106.68Y-69.088
X106.68Y-72.136
X106.68Y-75.184
X106.68Y-78.232
X108.204Y-55.88
X108.204Y-66.04
X109.728Y-52.324
X111.252Y-84.328
X111.252Y-88.392
X111.332Y-57.912
X111.332Y-61.976
X112.268Y-99.568
X112.268Y-102.616
X113.792Y-84.328
X113.792Y-88.392
X116.332Y-57.912
X116.332Y-61.976
X116.332Y-84.328
X116.332Y-88.392
X116.84Y-69.088
X116.84Y-72.136
X116.84Y-75.184
X116.84Y-78.232
X119.38Y-86.36
X119.38Y-96.52
X119.888Y-52.324
X119.888Y-55.88
X119.888Y-58.42
X119.888Y-60.96
X119.888Y-63.5
X119.888Y-66.04
X119.888Y-68.58
X119.888Y-71.12
X119.888Y-73.66
X119.888Y-78.232
X122.428Y-86.36
X122.428Y-96.52
X122.428Y-99.568
X122.428Y-102.616
X125.984Y-86.36
X125.984Y-88.9
X125.984Y-91.44
X125.984Y-93.98
X125.984Y-98.044
X127.508Y-55.88
X127.508Y-58.42
X127.508Y-60.96
X127.508Y-63.5
X127.508Y-66.04
X127.508Y-68.58
X127.508Y-71.12
X127.508Y-73.66
X130.048Y-78.232
X130.556Y-66.04
X130.556Y-69.088
X130.556Y-72.136
X130.984Y-98.044
X131.064Y-57.912
X131.064Y-61.976
X133.604Y-77.804
X133.604Y-82.804
X133.604Y-86.36
X133.604Y-88.9
X133.604Y-91.44
X133.604Y-93.98
X135.382Y-99.031
X135.382Y-101.031
X136.064Y-57.912
X136.064Y-61.976
X137.668Y-82.296
X137.668Y-92.456
X139.7Y-52.324
X139.7Y-62.484
X139.7Y-76.708
X139.7Y-78.708
X140.716Y-66.04
X140.716Y-69.088
X140.716Y-72.136
X140.716Y-82.296
X140.716Y-92.456
X142.748Y-52.324
X142.748Y-62.484
X143.063Y-98.044
X143.764Y-82.296
X143.764Y-92.456
X144.272Y-66.548
X144.272Y-76.708
X145.063Y-98.044
X149.098Y-51.308
X159.258Y-51.308
T3
X145.288Y-103.124
X148.336Y-82.296
X148.336Y-92.456
X155.448Y-103.124
T4
X107.325Y-95.544
X107.325Y-98.044
X107.325Y-100.544
X154.178Y-84.836
X154.178Y-87.376
X154.178Y-89.916
X154.178Y-92.456
X154.178Y-94.996
X156.718Y-84.836
X156.718Y-87.376
X156.718Y-89.916
X156.718Y-92.456
X156.718Y-94.996
X159.512Y-56.896
X159.512Y-59.396
X159.512Y-61.896
T6
X101.6Y-55.88
X115.316Y-94.488
X133.604Y-53.34
T1
G00X95.28Y-85.352
M15
G01X95.28Y-86.352
M16
G05
G00X98.38Y-85.352
M15
G01X98.38Y-86.352
M16
G05
G00X100.068Y-62.768
M15
G01X99.068Y-62.768
M16
G05
G00X100.068Y-65.868
M15
G01X99.068Y-65.868
M16
G05
G00X100.068Y-74.168
M15
G01X99.068Y-74.168
M16
G05
G00X106.68Y-85.352
M15
G01X106.68Y-86.352
M16
G05
G00X148.418Y-73.144
M15
G01X148.418Y-72.144
M16
G05
G00X156.718Y-73.144
M15
G01X156.718Y-72.144
M16
G05
G00X159.818Y-73.144
M15
G01X159.818Y-72.144
M16
G05
T5
G00X100.375Y-93.244
M15
G01X99.275Y-93.244
M16
G05
G00X100.375Y-102.844
M15
G01X99.275Y-102.844
M16
G05
G00X152.562Y-54.596
M15
G01X151.462Y-54.596
M16
G05
G00X152.562Y-64.196
M15
G01X151.462Y-64.196
M16
G05
T0
M30
