%TF.GenerationSoftware,KiCad,Pcbnew,(6.0.0-0)*%
%TF.CreationDate,2022-05-15T09:39:36+01:00*%
%TF.ProjectId,example-lowpass-filter,6578616d-706c-4652-9d6c-6f7770617373,r01*%
%TF.SameCoordinates,Original*%
%TF.FileFunction,Legend,Top*%
%TF.FilePolarity,Positive*%
%FSLAX46Y46*%
G04 Gerber Fmt 4.6, Leading zero omitted, Abs format (unit mm)*
G04 Created by KiCad (PCBNEW (6.0.0-0)) date 2022-05-15 09:39:36*
%MOMM*%
%LPD*%
G01*
G04 APERTURE LIST*
%ADD10C,0.150000*%
%ADD11C,0.120000*%
%ADD12C,0.200000*%
%ADD13C,1.000000*%
G04 APERTURE END LIST*
D10*
%TO.C,R21*%
X153535142Y-51760380D02*
X153201809Y-51284190D01*
X152963714Y-51760380D02*
X152963714Y-50760380D01*
X153344666Y-50760380D01*
X153439904Y-50808000D01*
X153487523Y-50855619D01*
X153535142Y-50950857D01*
X153535142Y-51093714D01*
X153487523Y-51188952D01*
X153439904Y-51236571D01*
X153344666Y-51284190D01*
X152963714Y-51284190D01*
X153916095Y-50855619D02*
X153963714Y-50808000D01*
X154058952Y-50760380D01*
X154297047Y-50760380D01*
X154392285Y-50808000D01*
X154439904Y-50855619D01*
X154487523Y-50950857D01*
X154487523Y-51046095D01*
X154439904Y-51188952D01*
X153868476Y-51760380D01*
X154487523Y-51760380D01*
X155439904Y-51760380D02*
X154868476Y-51760380D01*
X155154190Y-51760380D02*
X155154190Y-50760380D01*
X155058952Y-50903238D01*
X154963714Y-50998476D01*
X154868476Y-51046095D01*
%TO.C,R20*%
X144724380Y-72270857D02*
X144248190Y-72604190D01*
X144724380Y-72842285D02*
X143724380Y-72842285D01*
X143724380Y-72461333D01*
X143772000Y-72366095D01*
X143819619Y-72318476D01*
X143914857Y-72270857D01*
X144057714Y-72270857D01*
X144152952Y-72318476D01*
X144200571Y-72366095D01*
X144248190Y-72461333D01*
X144248190Y-72842285D01*
X143819619Y-71889904D02*
X143772000Y-71842285D01*
X143724380Y-71747047D01*
X143724380Y-71508952D01*
X143772000Y-71413714D01*
X143819619Y-71366095D01*
X143914857Y-71318476D01*
X144010095Y-71318476D01*
X144152952Y-71366095D01*
X144724380Y-71937523D01*
X144724380Y-71318476D01*
X143724380Y-70699428D02*
X143724380Y-70604190D01*
X143772000Y-70508952D01*
X143819619Y-70461333D01*
X143914857Y-70413714D01*
X144105333Y-70366095D01*
X144343428Y-70366095D01*
X144533904Y-70413714D01*
X144629142Y-70461333D01*
X144676761Y-70508952D01*
X144724380Y-70604190D01*
X144724380Y-70699428D01*
X144676761Y-70794666D01*
X144629142Y-70842285D01*
X144533904Y-70889904D01*
X144343428Y-70937523D01*
X144105333Y-70937523D01*
X143914857Y-70889904D01*
X143819619Y-70842285D01*
X143772000Y-70794666D01*
X143724380Y-70699428D01*
%TO.C,R13*%
X134993142Y-72588380D02*
X134659809Y-72112190D01*
X134421714Y-72588380D02*
X134421714Y-71588380D01*
X134802666Y-71588380D01*
X134897904Y-71636000D01*
X134945523Y-71683619D01*
X134993142Y-71778857D01*
X134993142Y-71921714D01*
X134945523Y-72016952D01*
X134897904Y-72064571D01*
X134802666Y-72112190D01*
X134421714Y-72112190D01*
X135945523Y-72588380D02*
X135374095Y-72588380D01*
X135659809Y-72588380D02*
X135659809Y-71588380D01*
X135564571Y-71731238D01*
X135469333Y-71826476D01*
X135374095Y-71874095D01*
X136278857Y-71588380D02*
X136897904Y-71588380D01*
X136564571Y-71969333D01*
X136707428Y-71969333D01*
X136802666Y-72016952D01*
X136850285Y-72064571D01*
X136897904Y-72159809D01*
X136897904Y-72397904D01*
X136850285Y-72493142D01*
X136802666Y-72540761D01*
X136707428Y-72588380D01*
X136421714Y-72588380D01*
X136326476Y-72540761D01*
X136278857Y-72493142D01*
%TO.C,C4*%
X133961142Y-96940666D02*
X134008761Y-96988285D01*
X134056380Y-97131142D01*
X134056380Y-97226380D01*
X134008761Y-97369238D01*
X133913523Y-97464476D01*
X133818285Y-97512095D01*
X133627809Y-97559714D01*
X133484952Y-97559714D01*
X133294476Y-97512095D01*
X133199238Y-97464476D01*
X133104000Y-97369238D01*
X133056380Y-97226380D01*
X133056380Y-97131142D01*
X133104000Y-96988285D01*
X133151619Y-96940666D01*
X133389714Y-96083523D02*
X134056380Y-96083523D01*
X133008761Y-96321619D02*
X133723047Y-96559714D01*
X133723047Y-95940666D01*
%TO.C,C3*%
X143613142Y-79668666D02*
X143660761Y-79716285D01*
X143708380Y-79859142D01*
X143708380Y-79954380D01*
X143660761Y-80097238D01*
X143565523Y-80192476D01*
X143470285Y-80240095D01*
X143279809Y-80287714D01*
X143136952Y-80287714D01*
X142946476Y-80240095D01*
X142851238Y-80192476D01*
X142756000Y-80097238D01*
X142708380Y-79954380D01*
X142708380Y-79859142D01*
X142756000Y-79716285D01*
X142803619Y-79668666D01*
X142708380Y-79335333D02*
X142708380Y-78716285D01*
X143089333Y-79049619D01*
X143089333Y-78906761D01*
X143136952Y-78811523D01*
X143184571Y-78763904D01*
X143279809Y-78716285D01*
X143517904Y-78716285D01*
X143613142Y-78763904D01*
X143660761Y-78811523D01*
X143708380Y-78906761D01*
X143708380Y-79192476D01*
X143660761Y-79287714D01*
X143613142Y-79335333D01*
%TO.C,R14*%
X134993142Y-69540380D02*
X134659809Y-69064190D01*
X134421714Y-69540380D02*
X134421714Y-68540380D01*
X134802666Y-68540380D01*
X134897904Y-68588000D01*
X134945523Y-68635619D01*
X134993142Y-68730857D01*
X134993142Y-68873714D01*
X134945523Y-68968952D01*
X134897904Y-69016571D01*
X134802666Y-69064190D01*
X134421714Y-69064190D01*
X135945523Y-69540380D02*
X135374095Y-69540380D01*
X135659809Y-69540380D02*
X135659809Y-68540380D01*
X135564571Y-68683238D01*
X135469333Y-68778476D01*
X135374095Y-68826095D01*
X136802666Y-68873714D02*
X136802666Y-69540380D01*
X136564571Y-68492761D02*
X136326476Y-69207047D01*
X136945523Y-69207047D01*
%TO.C,R3*%
X111593333Y-72588380D02*
X111260000Y-72112190D01*
X111021904Y-72588380D02*
X111021904Y-71588380D01*
X111402857Y-71588380D01*
X111498095Y-71636000D01*
X111545714Y-71683619D01*
X111593333Y-71778857D01*
X111593333Y-71921714D01*
X111545714Y-72016952D01*
X111498095Y-72064571D01*
X111402857Y-72112190D01*
X111021904Y-72112190D01*
X111926666Y-71588380D02*
X112545714Y-71588380D01*
X112212380Y-71969333D01*
X112355238Y-71969333D01*
X112450476Y-72016952D01*
X112498095Y-72064571D01*
X112545714Y-72159809D01*
X112545714Y-72397904D01*
X112498095Y-72493142D01*
X112450476Y-72540761D01*
X112355238Y-72588380D01*
X112069523Y-72588380D01*
X111974285Y-72540761D01*
X111926666Y-72493142D01*
%TO.C,R9*%
X124801333Y-78684380D02*
X124468000Y-78208190D01*
X124229904Y-78684380D02*
X124229904Y-77684380D01*
X124610857Y-77684380D01*
X124706095Y-77732000D01*
X124753714Y-77779619D01*
X124801333Y-77874857D01*
X124801333Y-78017714D01*
X124753714Y-78112952D01*
X124706095Y-78160571D01*
X124610857Y-78208190D01*
X124229904Y-78208190D01*
X125277523Y-78684380D02*
X125468000Y-78684380D01*
X125563238Y-78636761D01*
X125610857Y-78589142D01*
X125706095Y-78446285D01*
X125753714Y-78255809D01*
X125753714Y-77874857D01*
X125706095Y-77779619D01*
X125658476Y-77732000D01*
X125563238Y-77684380D01*
X125372761Y-77684380D01*
X125277523Y-77732000D01*
X125229904Y-77779619D01*
X125182285Y-77874857D01*
X125182285Y-78112952D01*
X125229904Y-78208190D01*
X125277523Y-78255809D01*
X125372761Y-78303428D01*
X125563238Y-78303428D01*
X125658476Y-78255809D01*
X125706095Y-78208190D01*
X125753714Y-78112952D01*
%TO.C,R17*%
X138120380Y-88018857D02*
X137644190Y-88352190D01*
X138120380Y-88590285D02*
X137120380Y-88590285D01*
X137120380Y-88209333D01*
X137168000Y-88114095D01*
X137215619Y-88066476D01*
X137310857Y-88018857D01*
X137453714Y-88018857D01*
X137548952Y-88066476D01*
X137596571Y-88114095D01*
X137644190Y-88209333D01*
X137644190Y-88590285D01*
X138120380Y-87066476D02*
X138120380Y-87637904D01*
X138120380Y-87352190D02*
X137120380Y-87352190D01*
X137263238Y-87447428D01*
X137358476Y-87542666D01*
X137406095Y-87637904D01*
X137120380Y-86733142D02*
X137120380Y-86066476D01*
X138120380Y-86495047D01*
%TO.C,R11*%
X111117142Y-78684380D02*
X110783809Y-78208190D01*
X110545714Y-78684380D02*
X110545714Y-77684380D01*
X110926666Y-77684380D01*
X111021904Y-77732000D01*
X111069523Y-77779619D01*
X111117142Y-77874857D01*
X111117142Y-78017714D01*
X111069523Y-78112952D01*
X111021904Y-78160571D01*
X110926666Y-78208190D01*
X110545714Y-78208190D01*
X112069523Y-78684380D02*
X111498095Y-78684380D01*
X111783809Y-78684380D02*
X111783809Y-77684380D01*
X111688571Y-77827238D01*
X111593333Y-77922476D01*
X111498095Y-77970095D01*
X113021904Y-78684380D02*
X112450476Y-78684380D01*
X112736190Y-78684380D02*
X112736190Y-77684380D01*
X112640952Y-77827238D01*
X112545714Y-77922476D01*
X112450476Y-77970095D01*
%TO.C,C8*%
X128317333Y-98401142D02*
X128269714Y-98448761D01*
X128126857Y-98496380D01*
X128031619Y-98496380D01*
X127888761Y-98448761D01*
X127793523Y-98353523D01*
X127745904Y-98258285D01*
X127698285Y-98067809D01*
X127698285Y-97924952D01*
X127745904Y-97734476D01*
X127793523Y-97639238D01*
X127888761Y-97544000D01*
X128031619Y-97496380D01*
X128126857Y-97496380D01*
X128269714Y-97544000D01*
X128317333Y-97591619D01*
X128888761Y-97924952D02*
X128793523Y-97877333D01*
X128745904Y-97829714D01*
X128698285Y-97734476D01*
X128698285Y-97686857D01*
X128745904Y-97591619D01*
X128793523Y-97544000D01*
X128888761Y-97496380D01*
X129079238Y-97496380D01*
X129174476Y-97544000D01*
X129222095Y-97591619D01*
X129269714Y-97686857D01*
X129269714Y-97734476D01*
X129222095Y-97829714D01*
X129174476Y-97877333D01*
X129079238Y-97924952D01*
X128888761Y-97924952D01*
X128793523Y-97972571D01*
X128745904Y-98020190D01*
X128698285Y-98115428D01*
X128698285Y-98305904D01*
X128745904Y-98401142D01*
X128793523Y-98448761D01*
X128888761Y-98496380D01*
X129079238Y-98496380D01*
X129174476Y-98448761D01*
X129222095Y-98401142D01*
X129269714Y-98305904D01*
X129269714Y-98115428D01*
X129222095Y-98020190D01*
X129174476Y-97972571D01*
X129079238Y-97924952D01*
%TO.C,Q1*%
X113696761Y-81315619D02*
X113601523Y-81268000D01*
X113506285Y-81172761D01*
X113363428Y-81029904D01*
X113268190Y-80982285D01*
X113172952Y-80982285D01*
X113220571Y-81220380D02*
X113125333Y-81172761D01*
X113030095Y-81077523D01*
X112982476Y-80887047D01*
X112982476Y-80553714D01*
X113030095Y-80363238D01*
X113125333Y-80268000D01*
X113220571Y-80220380D01*
X113411047Y-80220380D01*
X113506285Y-80268000D01*
X113601523Y-80363238D01*
X113649142Y-80553714D01*
X113649142Y-80887047D01*
X113601523Y-81077523D01*
X113506285Y-81172761D01*
X113411047Y-81220380D01*
X113220571Y-81220380D01*
X114601523Y-81220380D02*
X114030095Y-81220380D01*
X114315809Y-81220380D02*
X114315809Y-80220380D01*
X114220571Y-80363238D01*
X114125333Y-80458476D01*
X114030095Y-80506095D01*
%TO.C,R7*%
X108656380Y-61126666D02*
X108180190Y-61460000D01*
X108656380Y-61698095D02*
X107656380Y-61698095D01*
X107656380Y-61317142D01*
X107704000Y-61221904D01*
X107751619Y-61174285D01*
X107846857Y-61126666D01*
X107989714Y-61126666D01*
X108084952Y-61174285D01*
X108132571Y-61221904D01*
X108180190Y-61317142D01*
X108180190Y-61698095D01*
X107656380Y-60793333D02*
X107656380Y-60126666D01*
X108656380Y-60555238D01*
%TO.C,R15*%
X140152380Y-58046857D02*
X139676190Y-58380190D01*
X140152380Y-58618285D02*
X139152380Y-58618285D01*
X139152380Y-58237333D01*
X139200000Y-58142095D01*
X139247619Y-58094476D01*
X139342857Y-58046857D01*
X139485714Y-58046857D01*
X139580952Y-58094476D01*
X139628571Y-58142095D01*
X139676190Y-58237333D01*
X139676190Y-58618285D01*
X140152380Y-57094476D02*
X140152380Y-57665904D01*
X140152380Y-57380190D02*
X139152380Y-57380190D01*
X139295238Y-57475428D01*
X139390476Y-57570666D01*
X139438095Y-57665904D01*
X139152380Y-56189714D02*
X139152380Y-56665904D01*
X139628571Y-56713523D01*
X139580952Y-56665904D01*
X139533333Y-56570666D01*
X139533333Y-56332571D01*
X139580952Y-56237333D01*
X139628571Y-56189714D01*
X139723809Y-56142095D01*
X139961904Y-56142095D01*
X140057142Y-56189714D01*
X140104761Y-56237333D01*
X140152380Y-56332571D01*
X140152380Y-56570666D01*
X140104761Y-56665904D01*
X140057142Y-56713523D01*
%TO.C,R4*%
X117181333Y-103068380D02*
X116848000Y-102592190D01*
X116609904Y-103068380D02*
X116609904Y-102068380D01*
X116990857Y-102068380D01*
X117086095Y-102116000D01*
X117133714Y-102163619D01*
X117181333Y-102258857D01*
X117181333Y-102401714D01*
X117133714Y-102496952D01*
X117086095Y-102544571D01*
X116990857Y-102592190D01*
X116609904Y-102592190D01*
X118038476Y-102401714D02*
X118038476Y-103068380D01*
X117800380Y-102020761D02*
X117562285Y-102735047D01*
X118181333Y-102735047D01*
%TO.C,Q2*%
X111156761Y-92495619D02*
X111061523Y-92448000D01*
X110966285Y-92352761D01*
X110823428Y-92209904D01*
X110728190Y-92162285D01*
X110632952Y-92162285D01*
X110680571Y-92400380D02*
X110585333Y-92352761D01*
X110490095Y-92257523D01*
X110442476Y-92067047D01*
X110442476Y-91733714D01*
X110490095Y-91543238D01*
X110585333Y-91448000D01*
X110680571Y-91400380D01*
X110871047Y-91400380D01*
X110966285Y-91448000D01*
X111061523Y-91543238D01*
X111109142Y-91733714D01*
X111109142Y-92067047D01*
X111061523Y-92257523D01*
X110966285Y-92352761D01*
X110871047Y-92400380D01*
X110680571Y-92400380D01*
X111490095Y-91495619D02*
X111537714Y-91448000D01*
X111632952Y-91400380D01*
X111871047Y-91400380D01*
X111966285Y-91448000D01*
X112013904Y-91495619D01*
X112061523Y-91590857D01*
X112061523Y-91686095D01*
X112013904Y-91828952D01*
X111442476Y-92400380D01*
X112061523Y-92400380D01*
%TO.C,D2*%
X148788380Y-88622095D02*
X147788380Y-88622095D01*
X147788380Y-88384000D01*
X147836000Y-88241142D01*
X147931238Y-88145904D01*
X148026476Y-88098285D01*
X148216952Y-88050666D01*
X148359809Y-88050666D01*
X148550285Y-88098285D01*
X148645523Y-88145904D01*
X148740761Y-88241142D01*
X148788380Y-88384000D01*
X148788380Y-88622095D01*
X147883619Y-87669714D02*
X147836000Y-87622095D01*
X147788380Y-87526857D01*
X147788380Y-87288761D01*
X147836000Y-87193523D01*
X147883619Y-87145904D01*
X147978857Y-87098285D01*
X148074095Y-87098285D01*
X148216952Y-87145904D01*
X148788380Y-87717333D01*
X148788380Y-87098285D01*
X147772380Y-84081904D02*
X146772380Y-84081904D01*
X147772380Y-83510476D02*
X147200952Y-83939047D01*
X146772380Y-83510476D02*
X147343809Y-84081904D01*
%TO.C,C7*%
X133397333Y-62333142D02*
X133349714Y-62380761D01*
X133206857Y-62428380D01*
X133111619Y-62428380D01*
X132968761Y-62380761D01*
X132873523Y-62285523D01*
X132825904Y-62190285D01*
X132778285Y-61999809D01*
X132778285Y-61856952D01*
X132825904Y-61666476D01*
X132873523Y-61571238D01*
X132968761Y-61476000D01*
X133111619Y-61428380D01*
X133206857Y-61428380D01*
X133349714Y-61476000D01*
X133397333Y-61523619D01*
X133730666Y-61428380D02*
X134397333Y-61428380D01*
X133968761Y-62428380D01*
%TO.C,C1*%
X113665333Y-58269142D02*
X113617714Y-58316761D01*
X113474857Y-58364380D01*
X113379619Y-58364380D01*
X113236761Y-58316761D01*
X113141523Y-58221523D01*
X113093904Y-58126285D01*
X113046285Y-57935809D01*
X113046285Y-57792952D01*
X113093904Y-57602476D01*
X113141523Y-57507238D01*
X113236761Y-57412000D01*
X113379619Y-57364380D01*
X113474857Y-57364380D01*
X113617714Y-57412000D01*
X113665333Y-57459619D01*
X114617714Y-58364380D02*
X114046285Y-58364380D01*
X114332000Y-58364380D02*
X114332000Y-57364380D01*
X114236761Y-57507238D01*
X114141523Y-57602476D01*
X114046285Y-57650095D01*
%TO.C,R6*%
X122880380Y-91606666D02*
X122404190Y-91940000D01*
X122880380Y-92178095D02*
X121880380Y-92178095D01*
X121880380Y-91797142D01*
X121928000Y-91701904D01*
X121975619Y-91654285D01*
X122070857Y-91606666D01*
X122213714Y-91606666D01*
X122308952Y-91654285D01*
X122356571Y-91701904D01*
X122404190Y-91797142D01*
X122404190Y-92178095D01*
X121880380Y-90749523D02*
X121880380Y-90940000D01*
X121928000Y-91035238D01*
X121975619Y-91082857D01*
X122118476Y-91178095D01*
X122308952Y-91225714D01*
X122689904Y-91225714D01*
X122785142Y-91178095D01*
X122832761Y-91130476D01*
X122880380Y-91035238D01*
X122880380Y-90844761D01*
X122832761Y-90749523D01*
X122785142Y-90701904D01*
X122689904Y-90654285D01*
X122451809Y-90654285D01*
X122356571Y-90701904D01*
X122308952Y-90749523D01*
X122261333Y-90844761D01*
X122261333Y-91035238D01*
X122308952Y-91130476D01*
X122356571Y-91178095D01*
X122451809Y-91225714D01*
%TO.C,R8*%
X119832380Y-91606666D02*
X119356190Y-91940000D01*
X119832380Y-92178095D02*
X118832380Y-92178095D01*
X118832380Y-91797142D01*
X118880000Y-91701904D01*
X118927619Y-91654285D01*
X119022857Y-91606666D01*
X119165714Y-91606666D01*
X119260952Y-91654285D01*
X119308571Y-91701904D01*
X119356190Y-91797142D01*
X119356190Y-92178095D01*
X119260952Y-91035238D02*
X119213333Y-91130476D01*
X119165714Y-91178095D01*
X119070476Y-91225714D01*
X119022857Y-91225714D01*
X118927619Y-91178095D01*
X118880000Y-91130476D01*
X118832380Y-91035238D01*
X118832380Y-90844761D01*
X118880000Y-90749523D01*
X118927619Y-90701904D01*
X119022857Y-90654285D01*
X119070476Y-90654285D01*
X119165714Y-90701904D01*
X119213333Y-90749523D01*
X119260952Y-90844761D01*
X119260952Y-91035238D01*
X119308571Y-91130476D01*
X119356190Y-91178095D01*
X119451428Y-91225714D01*
X119641904Y-91225714D01*
X119737142Y-91178095D01*
X119784761Y-91130476D01*
X119832380Y-91035238D01*
X119832380Y-90844761D01*
X119784761Y-90749523D01*
X119737142Y-90701904D01*
X119641904Y-90654285D01*
X119451428Y-90654285D01*
X119356190Y-90701904D01*
X119308571Y-90749523D01*
X119260952Y-90844761D01*
%TO.C,R2*%
X117181333Y-100020380D02*
X116848000Y-99544190D01*
X116609904Y-100020380D02*
X116609904Y-99020380D01*
X116990857Y-99020380D01*
X117086095Y-99068000D01*
X117133714Y-99115619D01*
X117181333Y-99210857D01*
X117181333Y-99353714D01*
X117133714Y-99448952D01*
X117086095Y-99496571D01*
X116990857Y-99544190D01*
X116609904Y-99544190D01*
X117562285Y-99115619D02*
X117609904Y-99068000D01*
X117705142Y-99020380D01*
X117943238Y-99020380D01*
X118038476Y-99068000D01*
X118086095Y-99115619D01*
X118133714Y-99210857D01*
X118133714Y-99306095D01*
X118086095Y-99448952D01*
X117514666Y-100020380D01*
X118133714Y-100020380D01*
%TO.C,U1*%
X122936095Y-63968380D02*
X122936095Y-64777904D01*
X122983714Y-64873142D01*
X123031333Y-64920761D01*
X123126571Y-64968380D01*
X123317047Y-64968380D01*
X123412285Y-64920761D01*
X123459904Y-64873142D01*
X123507523Y-64777904D01*
X123507523Y-63968380D01*
X124507523Y-64968380D02*
X123936095Y-64968380D01*
X124221809Y-64968380D02*
X124221809Y-63968380D01*
X124126571Y-64111238D01*
X124031333Y-64206476D01*
X123936095Y-64254095D01*
%TO.C,C9*%
X133961142Y-80470666D02*
X134008761Y-80518285D01*
X134056380Y-80661142D01*
X134056380Y-80756380D01*
X134008761Y-80899238D01*
X133913523Y-80994476D01*
X133818285Y-81042095D01*
X133627809Y-81089714D01*
X133484952Y-81089714D01*
X133294476Y-81042095D01*
X133199238Y-80994476D01*
X133104000Y-80899238D01*
X133056380Y-80756380D01*
X133056380Y-80661142D01*
X133104000Y-80518285D01*
X133151619Y-80470666D01*
X134056380Y-79994476D02*
X134056380Y-79804000D01*
X134008761Y-79708761D01*
X133961142Y-79661142D01*
X133818285Y-79565904D01*
X133627809Y-79518285D01*
X133246857Y-79518285D01*
X133151619Y-79565904D01*
X133104000Y-79613523D01*
X133056380Y-79708761D01*
X133056380Y-79899238D01*
X133104000Y-79994476D01*
X133151619Y-80042095D01*
X133246857Y-80089714D01*
X133484952Y-80089714D01*
X133580190Y-80042095D01*
X133627809Y-79994476D01*
X133675428Y-79899238D01*
X133675428Y-79708761D01*
X133627809Y-79613523D01*
X133580190Y-79565904D01*
X133484952Y-79518285D01*
%TO.C,R10*%
X114165142Y-52776380D02*
X113831809Y-52300190D01*
X113593714Y-52776380D02*
X113593714Y-51776380D01*
X113974666Y-51776380D01*
X114069904Y-51824000D01*
X114117523Y-51871619D01*
X114165142Y-51966857D01*
X114165142Y-52109714D01*
X114117523Y-52204952D01*
X114069904Y-52252571D01*
X113974666Y-52300190D01*
X113593714Y-52300190D01*
X115117523Y-52776380D02*
X114546095Y-52776380D01*
X114831809Y-52776380D02*
X114831809Y-51776380D01*
X114736571Y-51919238D01*
X114641333Y-52014476D01*
X114546095Y-52062095D01*
X115736571Y-51776380D02*
X115831809Y-51776380D01*
X115927047Y-51824000D01*
X115974666Y-51871619D01*
X116022285Y-51966857D01*
X116069904Y-52157333D01*
X116069904Y-52395428D01*
X116022285Y-52585904D01*
X115974666Y-52681142D01*
X115927047Y-52728761D01*
X115831809Y-52776380D01*
X115736571Y-52776380D01*
X115641333Y-52728761D01*
X115593714Y-52681142D01*
X115546095Y-52585904D01*
X115498476Y-52395428D01*
X115498476Y-52157333D01*
X115546095Y-51966857D01*
X115593714Y-51871619D01*
X115641333Y-51824000D01*
X115736571Y-51776380D01*
%TO.C,J3*%
X151201428Y-96757904D02*
X151201428Y-95996000D01*
X151582380Y-96376952D02*
X150820476Y-96376952D01*
X151582380Y-94996000D02*
X151582380Y-95567428D01*
X151582380Y-95281714D02*
X150582380Y-95281714D01*
X150725238Y-95376952D01*
X150820476Y-95472190D01*
X150868095Y-95567428D01*
X150677619Y-94615047D02*
X150630000Y-94567428D01*
X150582380Y-94472190D01*
X150582380Y-94234095D01*
X150630000Y-94138857D01*
X150677619Y-94091238D01*
X150772857Y-94043619D01*
X150868095Y-94043619D01*
X151010952Y-94091238D01*
X151582380Y-94662666D01*
X151582380Y-94043619D01*
X150582380Y-93757904D02*
X151582380Y-93424571D01*
X150582380Y-93091238D01*
X158090857Y-78287619D02*
X158424190Y-78763809D01*
X158662285Y-78287619D02*
X158662285Y-79287619D01*
X158281333Y-79287619D01*
X158186095Y-79240000D01*
X158138476Y-79192380D01*
X158090857Y-79097142D01*
X158090857Y-78954285D01*
X158138476Y-78859047D01*
X158186095Y-78811428D01*
X158281333Y-78763809D01*
X158662285Y-78763809D01*
X157662285Y-78811428D02*
X157328952Y-78811428D01*
X157186095Y-78287619D02*
X157662285Y-78287619D01*
X157662285Y-79287619D01*
X157186095Y-79287619D01*
X156757523Y-78287619D02*
X156757523Y-79287619D01*
X156519428Y-79287619D01*
X156376571Y-79240000D01*
X156281333Y-79144761D01*
X156233714Y-79049523D01*
X156186095Y-78859047D01*
X156186095Y-78716190D01*
X156233714Y-78525714D01*
X156281333Y-78430476D01*
X156376571Y-78335238D01*
X156519428Y-78287619D01*
X156757523Y-78287619D01*
X154519428Y-78287619D02*
X154995619Y-78287619D01*
X154995619Y-79287619D01*
X154186095Y-78287619D02*
X154186095Y-79287619D01*
X153709904Y-78287619D02*
X153709904Y-79287619D01*
X153138476Y-78287619D01*
X153138476Y-79287619D01*
X152662285Y-78811428D02*
X152328952Y-78811428D01*
X152186095Y-78287619D02*
X152662285Y-78287619D01*
X152662285Y-79287619D01*
X152186095Y-79287619D01*
X151201428Y-86597904D02*
X151201428Y-85836000D01*
X151582380Y-84836000D02*
X151582380Y-85407428D01*
X151582380Y-85121714D02*
X150582380Y-85121714D01*
X150725238Y-85216952D01*
X150820476Y-85312190D01*
X150868095Y-85407428D01*
X150677619Y-84455047D02*
X150630000Y-84407428D01*
X150582380Y-84312190D01*
X150582380Y-84074095D01*
X150630000Y-83978857D01*
X150677619Y-83931238D01*
X150772857Y-83883619D01*
X150868095Y-83883619D01*
X151010952Y-83931238D01*
X151582380Y-84502666D01*
X151582380Y-83883619D01*
X150582380Y-83597904D02*
X151582380Y-83264571D01*
X150582380Y-82931238D01*
%TO.C,D1*%
X149629904Y-103576380D02*
X149629904Y-102576380D01*
X149868000Y-102576380D01*
X150010857Y-102624000D01*
X150106095Y-102719238D01*
X150153714Y-102814476D01*
X150201333Y-103004952D01*
X150201333Y-103147809D01*
X150153714Y-103338285D01*
X150106095Y-103433523D01*
X150010857Y-103528761D01*
X149868000Y-103576380D01*
X149629904Y-103576380D01*
X151153714Y-103576380D02*
X150582285Y-103576380D01*
X150868000Y-103576380D02*
X150868000Y-102576380D01*
X150772761Y-102719238D01*
X150677523Y-102814476D01*
X150582285Y-102862095D01*
X146776095Y-104592380D02*
X146776095Y-103592380D01*
X147347523Y-104592380D02*
X146918952Y-104020952D01*
X147347523Y-103592380D02*
X146776095Y-104163809D01*
%TO.C,C2*%
X133397333Y-58269142D02*
X133349714Y-58316761D01*
X133206857Y-58364380D01*
X133111619Y-58364380D01*
X132968761Y-58316761D01*
X132873523Y-58221523D01*
X132825904Y-58126285D01*
X132778285Y-57935809D01*
X132778285Y-57792952D01*
X132825904Y-57602476D01*
X132873523Y-57507238D01*
X132968761Y-57412000D01*
X133111619Y-57364380D01*
X133206857Y-57364380D01*
X133349714Y-57412000D01*
X133397333Y-57459619D01*
X133778285Y-57459619D02*
X133825904Y-57412000D01*
X133921142Y-57364380D01*
X134159238Y-57364380D01*
X134254476Y-57412000D01*
X134302095Y-57459619D01*
X134349714Y-57554857D01*
X134349714Y-57650095D01*
X134302095Y-57792952D01*
X133730666Y-58364380D01*
X134349714Y-58364380D01*
%TO.C,R1*%
X111593333Y-75636380D02*
X111260000Y-75160190D01*
X111021904Y-75636380D02*
X111021904Y-74636380D01*
X111402857Y-74636380D01*
X111498095Y-74684000D01*
X111545714Y-74731619D01*
X111593333Y-74826857D01*
X111593333Y-74969714D01*
X111545714Y-75064952D01*
X111498095Y-75112571D01*
X111402857Y-75160190D01*
X111021904Y-75160190D01*
X112545714Y-75636380D02*
X111974285Y-75636380D01*
X112260000Y-75636380D02*
X112260000Y-74636380D01*
X112164761Y-74779238D01*
X112069523Y-74874476D01*
X111974285Y-74922095D01*
%TO.C,R16*%
X134993142Y-66492380D02*
X134659809Y-66016190D01*
X134421714Y-66492380D02*
X134421714Y-65492380D01*
X134802666Y-65492380D01*
X134897904Y-65540000D01*
X134945523Y-65587619D01*
X134993142Y-65682857D01*
X134993142Y-65825714D01*
X134945523Y-65920952D01*
X134897904Y-65968571D01*
X134802666Y-66016190D01*
X134421714Y-66016190D01*
X135945523Y-66492380D02*
X135374095Y-66492380D01*
X135659809Y-66492380D02*
X135659809Y-65492380D01*
X135564571Y-65635238D01*
X135469333Y-65730476D01*
X135374095Y-65778095D01*
X136802666Y-65492380D02*
X136612190Y-65492380D01*
X136516952Y-65540000D01*
X136469333Y-65587619D01*
X136374095Y-65730476D01*
X136326476Y-65920952D01*
X136326476Y-66301904D01*
X136374095Y-66397142D01*
X136421714Y-66444761D01*
X136516952Y-66492380D01*
X136707428Y-66492380D01*
X136802666Y-66444761D01*
X136850285Y-66397142D01*
X136897904Y-66301904D01*
X136897904Y-66063809D01*
X136850285Y-65968571D01*
X136802666Y-65920952D01*
X136707428Y-65873333D01*
X136516952Y-65873333D01*
X136421714Y-65920952D01*
X136374095Y-65968571D01*
X136326476Y-66063809D01*
%TO.C,R12*%
X143200380Y-58046857D02*
X142724190Y-58380190D01*
X143200380Y-58618285D02*
X142200380Y-58618285D01*
X142200380Y-58237333D01*
X142248000Y-58142095D01*
X142295619Y-58094476D01*
X142390857Y-58046857D01*
X142533714Y-58046857D01*
X142628952Y-58094476D01*
X142676571Y-58142095D01*
X142724190Y-58237333D01*
X142724190Y-58618285D01*
X143200380Y-57094476D02*
X143200380Y-57665904D01*
X143200380Y-57380190D02*
X142200380Y-57380190D01*
X142343238Y-57475428D01*
X142438476Y-57570666D01*
X142486095Y-57665904D01*
X142295619Y-56713523D02*
X142248000Y-56665904D01*
X142200380Y-56570666D01*
X142200380Y-56332571D01*
X142248000Y-56237333D01*
X142295619Y-56189714D01*
X142390857Y-56142095D01*
X142486095Y-56142095D01*
X142628952Y-56189714D01*
X143200380Y-56761142D01*
X143200380Y-56142095D01*
%TO.C,C6*%
X113665333Y-62333142D02*
X113617714Y-62380761D01*
X113474857Y-62428380D01*
X113379619Y-62428380D01*
X113236761Y-62380761D01*
X113141523Y-62285523D01*
X113093904Y-62190285D01*
X113046285Y-61999809D01*
X113046285Y-61856952D01*
X113093904Y-61666476D01*
X113141523Y-61571238D01*
X113236761Y-61476000D01*
X113379619Y-61428380D01*
X113474857Y-61428380D01*
X113617714Y-61476000D01*
X113665333Y-61523619D01*
X114522476Y-61428380D02*
X114332000Y-61428380D01*
X114236761Y-61476000D01*
X114189142Y-61523619D01*
X114093904Y-61666476D01*
X114046285Y-61856952D01*
X114046285Y-62237904D01*
X114093904Y-62333142D01*
X114141523Y-62380761D01*
X114236761Y-62428380D01*
X114427238Y-62428380D01*
X114522476Y-62380761D01*
X114570095Y-62333142D01*
X114617714Y-62237904D01*
X114617714Y-61999809D01*
X114570095Y-61904571D01*
X114522476Y-61856952D01*
X114427238Y-61809333D01*
X114236761Y-61809333D01*
X114141523Y-61856952D01*
X114093904Y-61904571D01*
X114046285Y-61999809D01*
%TO.C,R18*%
X141168380Y-88018857D02*
X140692190Y-88352190D01*
X141168380Y-88590285D02*
X140168380Y-88590285D01*
X140168380Y-88209333D01*
X140216000Y-88114095D01*
X140263619Y-88066476D01*
X140358857Y-88018857D01*
X140501714Y-88018857D01*
X140596952Y-88066476D01*
X140644571Y-88114095D01*
X140692190Y-88209333D01*
X140692190Y-88590285D01*
X141168380Y-87066476D02*
X141168380Y-87637904D01*
X141168380Y-87352190D02*
X140168380Y-87352190D01*
X140311238Y-87447428D01*
X140406476Y-87542666D01*
X140454095Y-87637904D01*
X140596952Y-86495047D02*
X140549333Y-86590285D01*
X140501714Y-86637904D01*
X140406476Y-86685523D01*
X140358857Y-86685523D01*
X140263619Y-86637904D01*
X140216000Y-86590285D01*
X140168380Y-86495047D01*
X140168380Y-86304571D01*
X140216000Y-86209333D01*
X140263619Y-86161714D01*
X140358857Y-86114095D01*
X140406476Y-86114095D01*
X140501714Y-86161714D01*
X140549333Y-86209333D01*
X140596952Y-86304571D01*
X140596952Y-86495047D01*
X140644571Y-86590285D01*
X140692190Y-86637904D01*
X140787428Y-86685523D01*
X140977904Y-86685523D01*
X141073142Y-86637904D01*
X141120761Y-86590285D01*
X141168380Y-86495047D01*
X141168380Y-86304571D01*
X141120761Y-86209333D01*
X141073142Y-86161714D01*
X140977904Y-86114095D01*
X140787428Y-86114095D01*
X140692190Y-86161714D01*
X140644571Y-86209333D01*
X140596952Y-86304571D01*
%TO.C,R19*%
X144216380Y-88018857D02*
X143740190Y-88352190D01*
X144216380Y-88590285D02*
X143216380Y-88590285D01*
X143216380Y-88209333D01*
X143264000Y-88114095D01*
X143311619Y-88066476D01*
X143406857Y-88018857D01*
X143549714Y-88018857D01*
X143644952Y-88066476D01*
X143692571Y-88114095D01*
X143740190Y-88209333D01*
X143740190Y-88590285D01*
X144216380Y-87066476D02*
X144216380Y-87637904D01*
X144216380Y-87352190D02*
X143216380Y-87352190D01*
X143359238Y-87447428D01*
X143454476Y-87542666D01*
X143502095Y-87637904D01*
X144216380Y-86590285D02*
X144216380Y-86399809D01*
X144168761Y-86304571D01*
X144121142Y-86256952D01*
X143978285Y-86161714D01*
X143787809Y-86114095D01*
X143406857Y-86114095D01*
X143311619Y-86161714D01*
X143264000Y-86209333D01*
X143216380Y-86304571D01*
X143216380Y-86495047D01*
X143264000Y-86590285D01*
X143311619Y-86637904D01*
X143406857Y-86685523D01*
X143644952Y-86685523D01*
X143740190Y-86637904D01*
X143787809Y-86590285D01*
X143835428Y-86495047D01*
X143835428Y-86304571D01*
X143787809Y-86209333D01*
X143740190Y-86161714D01*
X143644952Y-86114095D01*
%TO.C,R5*%
X111593333Y-69540380D02*
X111260000Y-69064190D01*
X111021904Y-69540380D02*
X111021904Y-68540380D01*
X111402857Y-68540380D01*
X111498095Y-68588000D01*
X111545714Y-68635619D01*
X111593333Y-68730857D01*
X111593333Y-68873714D01*
X111545714Y-68968952D01*
X111498095Y-69016571D01*
X111402857Y-69064190D01*
X111021904Y-69064190D01*
X112498095Y-68540380D02*
X112021904Y-68540380D01*
X111974285Y-69016571D01*
X112021904Y-68968952D01*
X112117142Y-68921333D01*
X112355238Y-68921333D01*
X112450476Y-68968952D01*
X112498095Y-69016571D01*
X112545714Y-69111809D01*
X112545714Y-69349904D01*
X112498095Y-69445142D01*
X112450476Y-69492761D01*
X112355238Y-69540380D01*
X112117142Y-69540380D01*
X112021904Y-69492761D01*
X111974285Y-69445142D01*
%TO.C,C5*%
X140819143Y-97702666D02*
X140866762Y-97750285D01*
X140914381Y-97893142D01*
X140914381Y-97988380D01*
X140866762Y-98131238D01*
X140771524Y-98226476D01*
X140676286Y-98274095D01*
X140485810Y-98321714D01*
X140342953Y-98321714D01*
X140152477Y-98274095D01*
X140057239Y-98226476D01*
X139962001Y-98131238D01*
X139914381Y-97988380D01*
X139914381Y-97893142D01*
X139962001Y-97750285D01*
X140009620Y-97702666D01*
X139914381Y-96797904D02*
X139914381Y-97274095D01*
X140390572Y-97321714D01*
X140342953Y-97274095D01*
X140295334Y-97178857D01*
X140295334Y-96940761D01*
X140342953Y-96845523D01*
X140390572Y-96797904D01*
X140485810Y-96750285D01*
X140723905Y-96750285D01*
X140819143Y-96797904D01*
X140866762Y-96845523D01*
X140914381Y-96940761D01*
X140914381Y-97178857D01*
X140866762Y-97274095D01*
X140819143Y-97321714D01*
%TO.C,U2*%
X129286095Y-89876380D02*
X129286095Y-90685904D01*
X129333714Y-90781142D01*
X129381333Y-90828761D01*
X129476571Y-90876380D01*
X129667047Y-90876380D01*
X129762285Y-90828761D01*
X129809904Y-90781142D01*
X129857523Y-90685904D01*
X129857523Y-89876380D01*
X130286095Y-89971619D02*
X130333714Y-89924000D01*
X130428952Y-89876380D01*
X130667047Y-89876380D01*
X130762285Y-89924000D01*
X130809904Y-89971619D01*
X130857523Y-90066857D01*
X130857523Y-90162095D01*
X130809904Y-90304952D01*
X130238476Y-90876380D01*
X130857523Y-90876380D01*
D11*
%TO.C,RV2*%
X151512000Y-59396000D02*
X152512000Y-59396000D01*
X152012000Y-59896000D02*
X152012000Y-58896000D01*
X150102000Y-54526000D02*
X147042000Y-54526000D01*
X158632000Y-54526000D02*
X153912000Y-54526000D01*
X158632000Y-64276000D02*
X153912000Y-64276000D01*
X150102000Y-64266000D02*
X147042000Y-64266000D01*
X147042000Y-54526000D02*
X147042000Y-64266000D01*
X158632000Y-63086000D02*
X158632000Y-64266000D01*
X158632000Y-60186000D02*
X158632000Y-60716000D01*
X158632000Y-54526000D02*
X158632000Y-56016000D01*
X158632000Y-57736000D02*
X158632000Y-58566000D01*
%TO.C,R21*%
X150908000Y-52678000D02*
X157448000Y-52678000D01*
X158218000Y-51308000D02*
X157448000Y-51308000D01*
X150908000Y-49938000D02*
X150908000Y-52678000D01*
X157448000Y-52678000D02*
X157448000Y-49938000D01*
X157448000Y-49938000D02*
X150908000Y-49938000D01*
X150138000Y-51308000D02*
X150908000Y-51308000D01*
%TO.C,R20*%
X142902000Y-68358000D02*
X142902000Y-74898000D01*
X144272000Y-75668000D02*
X144272000Y-74898000D01*
X145642000Y-68358000D02*
X142902000Y-68358000D01*
X142902000Y-74898000D02*
X145642000Y-74898000D01*
X145642000Y-74898000D02*
X145642000Y-68358000D01*
X144272000Y-67588000D02*
X144272000Y-68358000D01*
D12*
%TO.C,J2*%
X107760000Y-81352000D02*
X107760000Y-84252000D01*
X97260000Y-90352000D02*
X107760000Y-90352000D01*
X97260000Y-81352000D02*
X107760000Y-81352000D01*
X107760000Y-87452000D02*
X107760000Y-90352000D01*
X97260000Y-87352000D02*
X97260000Y-90352000D01*
X97260000Y-81352000D02*
X97260000Y-84352000D01*
D11*
X99220001Y-87249000D02*
G75*
G03*
X99220001Y-84455000I2539999J1397000D01*
G01*
X103560000Y-85852000D02*
G75*
G03*
X103560000Y-85852000I-1800000J0D01*
G01*
%TO.C,R13*%
X138906000Y-73506000D02*
X138906000Y-70766000D01*
X138906000Y-70766000D02*
X132366000Y-70766000D01*
X132366000Y-70766000D02*
X132366000Y-73506000D01*
X131596000Y-72136000D02*
X132366000Y-72136000D01*
X139676000Y-72136000D02*
X138906000Y-72136000D01*
X132366000Y-73506000D02*
X138906000Y-73506000D01*
D12*
%TO.C,J4*%
X157838000Y-77144000D02*
X147338000Y-77144000D01*
X147338000Y-71044000D02*
X147338000Y-68144000D01*
X147338000Y-77144000D02*
X147338000Y-74244000D01*
X157838000Y-77144000D02*
X157838000Y-74144000D01*
X157838000Y-68144000D02*
X147338000Y-68144000D01*
X157838000Y-71144000D02*
X157838000Y-68144000D01*
D11*
X155877999Y-71247000D02*
G75*
G03*
X155877999Y-74041000I-2539999J-1397000D01*
G01*
X155138000Y-72644000D02*
G75*
G03*
X155138000Y-72644000I-1800000J0D01*
G01*
%TO.C,C4*%
X136422000Y-99831113D02*
X137955000Y-99831113D01*
X136422000Y-99791113D02*
X137951000Y-99791113D01*
X132940000Y-99190113D02*
X134342000Y-99190113D01*
X136422000Y-98470113D02*
X137447000Y-98470113D01*
X132927000Y-99230113D02*
X134342000Y-99230113D01*
X136422000Y-98390113D02*
X137386000Y-98390113D01*
X136422000Y-98030113D02*
X137035000Y-98030113D01*
X133556000Y-98190113D02*
X134342000Y-98190113D01*
X133828000Y-97950113D02*
X136936000Y-97950113D01*
X136422000Y-99951113D02*
X137961000Y-99951113D01*
X136422000Y-98230113D02*
X137246000Y-98230113D01*
X136422000Y-99190113D02*
X137824000Y-99190113D01*
X136422000Y-98270113D02*
X137283000Y-98270113D01*
X133233000Y-98590113D02*
X134342000Y-98590113D01*
X132839000Y-99591113D02*
X134342000Y-99591113D01*
X133882000Y-97910113D02*
X136882000Y-97910113D01*
X132817000Y-99751113D02*
X134342000Y-99751113D01*
X134864000Y-97470113D02*
X135900000Y-97470113D01*
X133999000Y-97830113D02*
X136765000Y-97830113D01*
X136422000Y-98190113D02*
X137208000Y-98190113D01*
X133317000Y-98470113D02*
X134342000Y-98470113D01*
X133907000Y-102835888D02*
X133907000Y-102335888D01*
X136422000Y-98990113D02*
X137747000Y-98990113D01*
X136422000Y-99551113D02*
X137918000Y-99551113D01*
X133287000Y-98510113D02*
X134342000Y-98510113D01*
X136422000Y-99711113D02*
X137943000Y-99711113D01*
X136422000Y-98550113D02*
X137504000Y-98550113D01*
X136422000Y-99511113D02*
X137910000Y-99511113D01*
X133639000Y-98110113D02*
X134342000Y-98110113D01*
X133072000Y-98870113D02*
X134342000Y-98870113D01*
X133683000Y-98070113D02*
X134342000Y-98070113D01*
X134284000Y-97670113D02*
X136480000Y-97670113D01*
X132813000Y-99791113D02*
X134342000Y-99791113D01*
X133411000Y-98350113D02*
X134342000Y-98350113D01*
X132984000Y-99070113D02*
X134342000Y-99070113D01*
X132802000Y-99991113D02*
X134342000Y-99991113D01*
X136422000Y-99431113D02*
X137893000Y-99431113D01*
X133939000Y-97870113D02*
X136825000Y-97870113D01*
X132881000Y-99391113D02*
X134342000Y-99391113D01*
X132891000Y-99351113D02*
X134342000Y-99351113D01*
X134467000Y-97590113D02*
X136297000Y-97590113D01*
X136422000Y-99230113D02*
X137837000Y-99230113D01*
X136422000Y-98830113D02*
X137672000Y-98830113D01*
X132871000Y-99431113D02*
X134342000Y-99431113D01*
X132846000Y-99551113D02*
X134342000Y-99551113D01*
X134131000Y-97750113D02*
X136633000Y-97750113D01*
X136422000Y-98710113D02*
X137606000Y-98710113D01*
X136422000Y-98870113D02*
X137692000Y-98870113D01*
X133378000Y-98390113D02*
X134342000Y-98390113D01*
X136422000Y-98670113D02*
X137582000Y-98670113D01*
X133017000Y-98990113D02*
X134342000Y-98990113D01*
X133034000Y-98950113D02*
X134342000Y-98950113D01*
X136422000Y-99270113D02*
X137850000Y-99270113D01*
X136422000Y-98150113D02*
X137167000Y-98150113D01*
X132809000Y-99831113D02*
X134342000Y-99831113D01*
X132832000Y-99631113D02*
X134342000Y-99631113D01*
X132821000Y-99711113D02*
X134342000Y-99711113D01*
X135098000Y-97430113D02*
X135666000Y-97430113D01*
X133777000Y-97990113D02*
X136987000Y-97990113D01*
X132902000Y-99310113D02*
X134342000Y-99310113D01*
X136422000Y-98350113D02*
X137353000Y-98350113D01*
X132968000Y-99110113D02*
X134342000Y-99110113D01*
X133092000Y-98830113D02*
X134342000Y-98830113D01*
X136422000Y-99070113D02*
X137780000Y-99070113D01*
X132954000Y-99150113D02*
X134342000Y-99150113D01*
X136422000Y-99991113D02*
X137962000Y-99991113D01*
X132862000Y-99471113D02*
X134342000Y-99471113D01*
X136422000Y-98630113D02*
X137557000Y-98630113D01*
X136422000Y-99351113D02*
X137873000Y-99351113D01*
X136422000Y-98750113D02*
X137629000Y-98750113D01*
X136422000Y-99150113D02*
X137810000Y-99150113D01*
X133158000Y-98710113D02*
X134342000Y-98710113D01*
X136422000Y-99310113D02*
X137862000Y-99310113D01*
X133114000Y-98790113D02*
X134342000Y-98790113D01*
X136422000Y-100031113D02*
X137962000Y-100031113D01*
X132826000Y-99671113D02*
X134342000Y-99671113D01*
X133481000Y-98270113D02*
X134342000Y-98270113D01*
X136422000Y-98070113D02*
X137081000Y-98070113D01*
X133729000Y-98030113D02*
X134342000Y-98030113D01*
X133053000Y-98910113D02*
X134342000Y-98910113D01*
X133260000Y-98550113D02*
X134342000Y-98550113D01*
X136422000Y-98510113D02*
X137477000Y-98510113D01*
X134577000Y-97550113D02*
X136187000Y-97550113D01*
X136422000Y-98950113D02*
X137730000Y-98950113D01*
X136422000Y-99591113D02*
X137925000Y-99591113D01*
X136422000Y-99391113D02*
X137883000Y-99391113D01*
X136422000Y-98110113D02*
X137125000Y-98110113D01*
X136422000Y-98590113D02*
X137531000Y-98590113D01*
X136422000Y-99911113D02*
X137960000Y-99911113D01*
X132803000Y-99951113D02*
X134342000Y-99951113D01*
X133445000Y-98310113D02*
X134342000Y-98310113D01*
X136422000Y-99631113D02*
X137932000Y-99631113D01*
X134705000Y-97510113D02*
X136059000Y-97510113D01*
X133000000Y-99030113D02*
X134342000Y-99030113D01*
X132802000Y-100031113D02*
X134342000Y-100031113D01*
X133597000Y-98150113D02*
X134342000Y-98150113D01*
X132914000Y-99270113D02*
X134342000Y-99270113D01*
X136422000Y-98430113D02*
X137417000Y-98430113D01*
X133518000Y-98230113D02*
X134342000Y-98230113D01*
X136422000Y-98790113D02*
X137650000Y-98790113D01*
X132854000Y-99511113D02*
X134342000Y-99511113D01*
X136422000Y-99751113D02*
X137947000Y-99751113D01*
X133207000Y-98630113D02*
X134342000Y-98630113D01*
X133347000Y-98430113D02*
X134342000Y-98430113D01*
X136422000Y-98910113D02*
X137711000Y-98910113D01*
X133657000Y-102585888D02*
X134157000Y-102585888D01*
X136422000Y-99871113D02*
X137958000Y-99871113D01*
X132804000Y-99911113D02*
X134342000Y-99911113D01*
X136422000Y-99110113D02*
X137796000Y-99110113D01*
X132806000Y-99871113D02*
X134342000Y-99871113D01*
X136422000Y-99471113D02*
X137902000Y-99471113D01*
X136422000Y-99030113D02*
X137764000Y-99030113D01*
X134063000Y-97790113D02*
X136701000Y-97790113D01*
X134204000Y-97710113D02*
X136560000Y-97710113D01*
X136422000Y-98310113D02*
X137319000Y-98310113D01*
X134371000Y-97630113D02*
X136393000Y-97630113D01*
X133135000Y-98750113D02*
X134342000Y-98750113D01*
X133182000Y-98670113D02*
X134342000Y-98670113D01*
X136422000Y-99671113D02*
X137938000Y-99671113D01*
X138002000Y-100031113D02*
G75*
G03*
X138002000Y-100031113I-2620000J0D01*
G01*
D12*
%TO.C,J1*%
X97968000Y-75248000D02*
X95068000Y-75248000D01*
X98068000Y-64748000D02*
X95068000Y-64748000D01*
X104068000Y-64748000D02*
X101068000Y-64748000D01*
X95068000Y-64748000D02*
X95068000Y-75248000D01*
X104068000Y-75248000D02*
X101168000Y-75248000D01*
X104068000Y-64748000D02*
X104068000Y-75248000D01*
D11*
X98171000Y-66708001D02*
G75*
G03*
X100965000Y-66708001I1397000J-2539999D01*
G01*
X101368000Y-69248000D02*
G75*
G03*
X101368000Y-69248000I-1800000J0D01*
G01*
%TO.C,C3*%
X138660000Y-78388000D02*
X137209000Y-78388000D01*
X141765000Y-79269000D02*
X140740000Y-79269000D01*
X138660000Y-77708000D02*
X137120000Y-77708000D01*
X141443000Y-79629000D02*
X140740000Y-79629000D01*
X142098000Y-78669000D02*
X140740000Y-78669000D01*
X141704000Y-79349000D02*
X140740000Y-79349000D01*
X141601000Y-79469000D02*
X140740000Y-79469000D01*
X142250000Y-78108000D02*
X140740000Y-78108000D01*
X142191000Y-78388000D02*
X140740000Y-78388000D01*
X138660000Y-79549000D02*
X137874000Y-79549000D01*
X142082000Y-78709000D02*
X140740000Y-78709000D01*
X138660000Y-79069000D02*
X137500000Y-79069000D01*
X142256000Y-78068000D02*
X140740000Y-78068000D01*
X138660000Y-79669000D02*
X138001000Y-79669000D01*
X142243000Y-78148000D02*
X140740000Y-78148000D01*
X138660000Y-78028000D02*
X137139000Y-78028000D01*
X141254000Y-79789000D02*
X138146000Y-79789000D01*
X138660000Y-78469000D02*
X137232000Y-78469000D01*
X138660000Y-77788000D02*
X137121000Y-77788000D01*
X142273000Y-77908000D02*
X140740000Y-77908000D01*
X138660000Y-78509000D02*
X137245000Y-78509000D01*
X141924000Y-79029000D02*
X140740000Y-79029000D01*
X141875000Y-79109000D02*
X140740000Y-79109000D01*
X141353000Y-79709000D02*
X140740000Y-79709000D01*
X138660000Y-78709000D02*
X137318000Y-78709000D01*
X138660000Y-79269000D02*
X137635000Y-79269000D01*
X141968000Y-78949000D02*
X140740000Y-78949000D01*
X141143000Y-79869000D02*
X138257000Y-79869000D01*
X142065000Y-78749000D02*
X140740000Y-78749000D01*
X142155000Y-78509000D02*
X140740000Y-78509000D01*
X140878000Y-80029000D02*
X138522000Y-80029000D01*
X138660000Y-78068000D02*
X137144000Y-78068000D01*
X138660000Y-78909000D02*
X137410000Y-78909000D01*
X142029000Y-78829000D02*
X140740000Y-78829000D01*
X138660000Y-78549000D02*
X137258000Y-78549000D01*
X138660000Y-77868000D02*
X137124000Y-77868000D01*
X141485000Y-79589000D02*
X140740000Y-79589000D01*
X142278000Y-77828000D02*
X140740000Y-77828000D01*
X139984000Y-80309000D02*
X139416000Y-80309000D01*
X138660000Y-78949000D02*
X137432000Y-78949000D01*
X140218000Y-80269000D02*
X139182000Y-80269000D01*
X141735000Y-79309000D02*
X140740000Y-79309000D01*
X138660000Y-79189000D02*
X137578000Y-79189000D01*
X138660000Y-78629000D02*
X137286000Y-78629000D01*
X138660000Y-79029000D02*
X137476000Y-79029000D01*
X138660000Y-77988000D02*
X137135000Y-77988000D01*
X141305000Y-79749000D02*
X138095000Y-79749000D01*
X138660000Y-78789000D02*
X137352000Y-78789000D01*
X138660000Y-79309000D02*
X137665000Y-79309000D01*
X138660000Y-78308000D02*
X137189000Y-78308000D01*
X138660000Y-78108000D02*
X137150000Y-78108000D01*
X138660000Y-79429000D02*
X137763000Y-79429000D01*
X142279000Y-77788000D02*
X140740000Y-77788000D01*
X142168000Y-78469000D02*
X140740000Y-78469000D01*
X142280000Y-77708000D02*
X140740000Y-77708000D01*
X138660000Y-78589000D02*
X137272000Y-78589000D01*
X138660000Y-79509000D02*
X137836000Y-79509000D01*
X142269000Y-77948000D02*
X140740000Y-77948000D01*
X138660000Y-79629000D02*
X137957000Y-79629000D01*
X141671000Y-79389000D02*
X140740000Y-79389000D01*
X138660000Y-77948000D02*
X137131000Y-77948000D01*
X142128000Y-78589000D02*
X140740000Y-78589000D01*
X142010000Y-78869000D02*
X140740000Y-78869000D01*
X142261000Y-78028000D02*
X140740000Y-78028000D01*
X141795000Y-79229000D02*
X140740000Y-79229000D01*
X142048000Y-78789000D02*
X140740000Y-78789000D01*
X138660000Y-78989000D02*
X137453000Y-78989000D01*
X138660000Y-78429000D02*
X137220000Y-78429000D01*
X141564000Y-79509000D02*
X140740000Y-79509000D01*
X142228000Y-78228000D02*
X140740000Y-78228000D01*
X138660000Y-79109000D02*
X137525000Y-79109000D01*
X140377000Y-80229000D02*
X139023000Y-80229000D01*
X141175000Y-74903225D02*
X141175000Y-75403225D01*
X138660000Y-78228000D02*
X137172000Y-78228000D01*
X140798000Y-80069000D02*
X138602000Y-80069000D01*
X138660000Y-79469000D02*
X137799000Y-79469000D01*
X138660000Y-79589000D02*
X137915000Y-79589000D01*
X140951000Y-79989000D02*
X138449000Y-79989000D01*
X141526000Y-79549000D02*
X140740000Y-79549000D01*
X140615000Y-80149000D02*
X138785000Y-80149000D01*
X142265000Y-77988000D02*
X140740000Y-77988000D01*
X138660000Y-78669000D02*
X137302000Y-78669000D01*
X141947000Y-78989000D02*
X140740000Y-78989000D01*
X141019000Y-79949000D02*
X138381000Y-79949000D01*
X138660000Y-79349000D02*
X137696000Y-79349000D01*
X138660000Y-78348000D02*
X137199000Y-78348000D01*
X142236000Y-78188000D02*
X140740000Y-78188000D01*
X138660000Y-78749000D02*
X137335000Y-78749000D01*
X141200000Y-79829000D02*
X138200000Y-79829000D01*
X138660000Y-77748000D02*
X137120000Y-77748000D01*
X142114000Y-78629000D02*
X140740000Y-78629000D01*
X141822000Y-79189000D02*
X140740000Y-79189000D01*
X141425000Y-75153225D02*
X140925000Y-75153225D01*
X138660000Y-78148000D02*
X137157000Y-78148000D01*
X142201000Y-78348000D02*
X140740000Y-78348000D01*
X138660000Y-79149000D02*
X137551000Y-79149000D01*
X138660000Y-78268000D02*
X137180000Y-78268000D01*
X141399000Y-79669000D02*
X140740000Y-79669000D01*
X141083000Y-79909000D02*
X138317000Y-79909000D01*
X142280000Y-77748000D02*
X140740000Y-77748000D01*
X138660000Y-77828000D02*
X137122000Y-77828000D01*
X138660000Y-79389000D02*
X137729000Y-79389000D01*
X142276000Y-77868000D02*
X140740000Y-77868000D01*
X140711000Y-80109000D02*
X138689000Y-80109000D01*
X141900000Y-79069000D02*
X140740000Y-79069000D01*
X142211000Y-78308000D02*
X140740000Y-78308000D01*
X141849000Y-79149000D02*
X140740000Y-79149000D01*
X138660000Y-79229000D02*
X137605000Y-79229000D01*
X138660000Y-79709000D02*
X138047000Y-79709000D01*
X141637000Y-79429000D02*
X140740000Y-79429000D01*
X138660000Y-77908000D02*
X137127000Y-77908000D01*
X142220000Y-78268000D02*
X140740000Y-78268000D01*
X138660000Y-78188000D02*
X137164000Y-78188000D01*
X138660000Y-78869000D02*
X137390000Y-78869000D01*
X142180000Y-78429000D02*
X140740000Y-78429000D01*
X142142000Y-78549000D02*
X140740000Y-78549000D01*
X138660000Y-78829000D02*
X137371000Y-78829000D01*
X141990000Y-78909000D02*
X140740000Y-78909000D01*
X140505000Y-80189000D02*
X138895000Y-80189000D01*
X142320000Y-77708000D02*
G75*
G03*
X142320000Y-77708000I-2620000J0D01*
G01*
%TO.C,R14*%
X138906000Y-67718000D02*
X132366000Y-67718000D01*
X132366000Y-70458000D02*
X138906000Y-70458000D01*
X131596000Y-69088000D02*
X132366000Y-69088000D01*
X138906000Y-70458000D02*
X138906000Y-67718000D01*
X139676000Y-69088000D02*
X138906000Y-69088000D01*
X132366000Y-67718000D02*
X132366000Y-70458000D01*
%TO.C,R3*%
X115030000Y-70766000D02*
X108490000Y-70766000D01*
X107720000Y-72136000D02*
X108490000Y-72136000D01*
X115800000Y-72136000D02*
X115030000Y-72136000D01*
X108490000Y-70766000D02*
X108490000Y-73506000D01*
X115030000Y-73506000D02*
X115030000Y-70766000D01*
X108490000Y-73506000D02*
X115030000Y-73506000D01*
%TO.C,R9*%
X129008000Y-78232000D02*
X128238000Y-78232000D01*
X128238000Y-79602000D02*
X128238000Y-76862000D01*
X121698000Y-79602000D02*
X128238000Y-79602000D01*
X120928000Y-78232000D02*
X121698000Y-78232000D01*
X121698000Y-76862000D02*
X121698000Y-79602000D01*
X128238000Y-76862000D02*
X121698000Y-76862000D01*
%TO.C,R17*%
X136298000Y-90646000D02*
X139038000Y-90646000D01*
X139038000Y-90646000D02*
X139038000Y-84106000D01*
X139038000Y-84106000D02*
X136298000Y-84106000D01*
X137668000Y-83336000D02*
X137668000Y-84106000D01*
X137668000Y-91416000D02*
X137668000Y-90646000D01*
X136298000Y-84106000D02*
X136298000Y-90646000D01*
%TO.C,R11*%
X115030000Y-79602000D02*
X115030000Y-76862000D01*
X108490000Y-79602000D02*
X115030000Y-79602000D01*
X107720000Y-78232000D02*
X108490000Y-78232000D01*
X115800000Y-78232000D02*
X115030000Y-78232000D01*
X115030000Y-76862000D02*
X108490000Y-76862000D01*
X108490000Y-76862000D02*
X108490000Y-79602000D01*
%TO.C,C8*%
X124864000Y-99914000D02*
X132104000Y-99914000D01*
X124864000Y-96174000D02*
X124864000Y-99914000D01*
X132104000Y-96174000D02*
X132104000Y-99914000D01*
X124864000Y-96174000D02*
X132104000Y-96174000D01*
%TO.C,Q1*%
X111992000Y-86178000D02*
X115592000Y-86178000D01*
X116148400Y-83229193D02*
G75*
G03*
X113792000Y-81728000I-2356399J-1098804D01*
G01*
X115592000Y-86178000D02*
G75*
G03*
X116116184Y-85450795I-1799991J1849994D01*
G01*
X111467816Y-85450795D02*
G75*
G03*
X111992000Y-86178000I2324175J1122789D01*
G01*
X113792000Y-81728000D02*
G75*
G03*
X111435600Y-83229193I2J-2600002D01*
G01*
%TO.C,TP1*%
X103300000Y-55880000D02*
G75*
G03*
X103300000Y-55880000I-1700000J0D01*
G01*
%TO.C,RV1*%
X106445000Y-96384000D02*
X106445000Y-97214000D01*
X106445000Y-98834000D02*
X106445000Y-99364000D01*
X106445000Y-93174000D02*
X106445000Y-94664000D01*
X106445000Y-101734000D02*
X106445000Y-102914000D01*
X106445000Y-93174000D02*
X101725000Y-93174000D01*
X97915000Y-102914000D02*
X94855000Y-102914000D01*
X97915000Y-93174000D02*
X94855000Y-93174000D01*
X106445000Y-102924000D02*
X101725000Y-102924000D01*
X94855000Y-93174000D02*
X94855000Y-102914000D01*
X99825000Y-98544000D02*
X99825000Y-97544000D01*
X99325000Y-98044000D02*
X100325000Y-98044000D01*
%TO.C,R7*%
X108204000Y-56920000D02*
X108204000Y-57690000D01*
X108204000Y-65000000D02*
X108204000Y-64230000D01*
X106834000Y-64230000D02*
X109574000Y-64230000D01*
X106834000Y-57690000D02*
X106834000Y-64230000D01*
X109574000Y-57690000D02*
X106834000Y-57690000D01*
X109574000Y-64230000D02*
X109574000Y-57690000D01*
%TO.C,R15*%
X141070000Y-54134000D02*
X138330000Y-54134000D01*
X139700000Y-61444000D02*
X139700000Y-60674000D01*
X139700000Y-53364000D02*
X139700000Y-54134000D01*
X138330000Y-60674000D02*
X141070000Y-60674000D01*
X138330000Y-54134000D02*
X138330000Y-60674000D01*
X141070000Y-60674000D02*
X141070000Y-54134000D01*
%TO.C,R4*%
X121388000Y-102616000D02*
X120618000Y-102616000D01*
X114078000Y-103986000D02*
X120618000Y-103986000D01*
X113308000Y-102616000D02*
X114078000Y-102616000D01*
X114078000Y-101246000D02*
X114078000Y-103986000D01*
X120618000Y-103986000D02*
X120618000Y-101246000D01*
X120618000Y-101246000D02*
X114078000Y-101246000D01*
%TO.C,Q2*%
X115592000Y-86542000D02*
X111992000Y-86542000D01*
X116116184Y-87269205D02*
G75*
G03*
X115592000Y-86542000I-2324175J-1122789D01*
G01*
X113792000Y-90992000D02*
G75*
G03*
X116148400Y-89490807I-2J2600002D01*
G01*
X111992000Y-86542000D02*
G75*
G03*
X111467816Y-87269205I1799991J-1849994D01*
G01*
X111435600Y-89490807D02*
G75*
G03*
X113792000Y-90992000I2356399J1098804D01*
G01*
%TO.C,D2*%
X149806000Y-90096000D02*
X149806000Y-84656000D01*
X146866000Y-84656000D02*
X146866000Y-90096000D01*
X149806000Y-85676000D02*
X146866000Y-85676000D01*
X149806000Y-85436000D02*
X146866000Y-85436000D01*
X148336000Y-91316000D02*
X148336000Y-90096000D01*
X149806000Y-85556000D02*
X146866000Y-85556000D01*
X149806000Y-84656000D02*
X146866000Y-84656000D01*
X146866000Y-90096000D02*
X149806000Y-90096000D01*
X148336000Y-83436000D02*
X148336000Y-84656000D01*
%TO.C,TP3*%
X135304000Y-53340000D02*
G75*
G03*
X135304000Y-53340000I-1700000J0D01*
G01*
%TO.C,C7*%
X137184000Y-63846000D02*
X137184000Y-60106000D01*
X137184000Y-60106000D02*
X129944000Y-60106000D01*
X137184000Y-63846000D02*
X129944000Y-63846000D01*
X129944000Y-63846000D02*
X129944000Y-60106000D01*
%TO.C,C1*%
X117452000Y-59782000D02*
X110212000Y-59782000D01*
X110212000Y-59782000D02*
X110212000Y-56042000D01*
X117452000Y-59782000D02*
X117452000Y-56042000D01*
X117452000Y-56042000D02*
X110212000Y-56042000D01*
%TO.C,R6*%
X123798000Y-88170000D02*
X121058000Y-88170000D01*
X121058000Y-94710000D02*
X123798000Y-94710000D01*
X122428000Y-95480000D02*
X122428000Y-94710000D01*
X121058000Y-88170000D02*
X121058000Y-94710000D01*
X123798000Y-94710000D02*
X123798000Y-88170000D01*
X122428000Y-87400000D02*
X122428000Y-88170000D01*
%TO.C,R8*%
X118010000Y-94710000D02*
X120750000Y-94710000D01*
X119380000Y-95480000D02*
X119380000Y-94710000D01*
X118010000Y-88170000D02*
X118010000Y-94710000D01*
X119380000Y-87400000D02*
X119380000Y-88170000D01*
X120750000Y-88170000D02*
X118010000Y-88170000D01*
X120750000Y-94710000D02*
X120750000Y-88170000D01*
%TO.C,R2*%
X114078000Y-98198000D02*
X114078000Y-100938000D01*
X120618000Y-98198000D02*
X114078000Y-98198000D01*
X113308000Y-99568000D02*
X114078000Y-99568000D01*
X121388000Y-99568000D02*
X120618000Y-99568000D01*
X114078000Y-100938000D02*
X120618000Y-100938000D01*
X120618000Y-100938000D02*
X120618000Y-98198000D01*
%TO.C,U1*%
X124698000Y-74990000D02*
X126348000Y-74990000D01*
X118558000Y-75050000D02*
X128838000Y-75050000D01*
X121048000Y-74990000D02*
X122698000Y-74990000D01*
X121048000Y-54550000D02*
X121048000Y-74990000D01*
X128838000Y-75050000D02*
X128838000Y-54490000D01*
X126348000Y-54550000D02*
X121048000Y-54550000D01*
X128838000Y-54490000D02*
X118558000Y-54490000D01*
X126348000Y-74990000D02*
X126348000Y-54550000D01*
X118558000Y-54490000D02*
X118558000Y-75050000D01*
X124698000Y-74990000D02*
G75*
G03*
X122698000Y-74990000I-1000000J0D01*
G01*
%TO.C,C9*%
X135474000Y-76684000D02*
X135474000Y-83924000D01*
X131734000Y-76684000D02*
X131734000Y-83924000D01*
X135474000Y-76684000D02*
X131734000Y-76684000D01*
X135474000Y-83924000D02*
X131734000Y-83924000D01*
%TO.C,R10*%
X118848000Y-52324000D02*
X118078000Y-52324000D01*
X111538000Y-50954000D02*
X111538000Y-53694000D01*
X111538000Y-53694000D02*
X118078000Y-53694000D01*
X110768000Y-52324000D02*
X111538000Y-52324000D01*
X118078000Y-50954000D02*
X111538000Y-50954000D01*
X118078000Y-53694000D02*
X118078000Y-50954000D01*
D13*
%TO.C,J3*%
X152198000Y-80010000D02*
X158698000Y-80010000D01*
D11*
X158698000Y-98906000D02*
X152198000Y-98906000D01*
X158698000Y-80926000D02*
X158698000Y-98906000D01*
X152198000Y-98906000D02*
X152198000Y-80926000D01*
X152198000Y-91966000D02*
X152198000Y-91966000D01*
X152198000Y-80926000D02*
X158698000Y-80926000D01*
%TO.C,D1*%
X148428000Y-101654000D02*
X148428000Y-104594000D01*
X147648000Y-101654000D02*
X147648000Y-104594000D01*
X148668000Y-101654000D02*
X148668000Y-104594000D01*
X146428000Y-103124000D02*
X147648000Y-103124000D01*
X148548000Y-101654000D02*
X148548000Y-104594000D01*
X153088000Y-101654000D02*
X147648000Y-101654000D01*
X147648000Y-104594000D02*
X153088000Y-104594000D01*
X154308000Y-103124000D02*
X153088000Y-103124000D01*
X153088000Y-104594000D02*
X153088000Y-101654000D01*
%TO.C,C2*%
X129944000Y-56042000D02*
X129944000Y-59782000D01*
X129944000Y-59782000D02*
X137184000Y-59782000D01*
X129944000Y-56042000D02*
X137184000Y-56042000D01*
X137184000Y-56042000D02*
X137184000Y-59782000D01*
%TO.C,TP2*%
X117016000Y-94488000D02*
G75*
G03*
X117016000Y-94488000I-1700000J0D01*
G01*
%TO.C,R1*%
X107720000Y-75184000D02*
X108490000Y-75184000D01*
X115800000Y-75184000D02*
X115030000Y-75184000D01*
X108490000Y-76554000D02*
X115030000Y-76554000D01*
X108490000Y-73814000D02*
X108490000Y-76554000D01*
X115030000Y-73814000D02*
X108490000Y-73814000D01*
X115030000Y-76554000D02*
X115030000Y-73814000D01*
%TO.C,R16*%
X132366000Y-67410000D02*
X138906000Y-67410000D01*
X131596000Y-66040000D02*
X132366000Y-66040000D01*
X139676000Y-66040000D02*
X138906000Y-66040000D01*
X138906000Y-67410000D02*
X138906000Y-64670000D01*
X138906000Y-64670000D02*
X132366000Y-64670000D01*
X132366000Y-64670000D02*
X132366000Y-67410000D01*
%TO.C,R12*%
X141378000Y-54134000D02*
X141378000Y-60674000D01*
X144118000Y-54134000D02*
X141378000Y-54134000D01*
X141378000Y-60674000D02*
X144118000Y-60674000D01*
X144118000Y-60674000D02*
X144118000Y-54134000D01*
X142748000Y-61444000D02*
X142748000Y-60674000D01*
X142748000Y-53364000D02*
X142748000Y-54134000D01*
%TO.C,C6*%
X117452000Y-63846000D02*
X117452000Y-60106000D01*
X117452000Y-60106000D02*
X110212000Y-60106000D01*
X110212000Y-63846000D02*
X110212000Y-60106000D01*
X117452000Y-63846000D02*
X110212000Y-63846000D01*
%TO.C,R18*%
X142086000Y-90646000D02*
X142086000Y-84106000D01*
X140716000Y-83336000D02*
X140716000Y-84106000D01*
X140716000Y-91416000D02*
X140716000Y-90646000D01*
X139346000Y-90646000D02*
X142086000Y-90646000D01*
X142086000Y-84106000D02*
X139346000Y-84106000D01*
X139346000Y-84106000D02*
X139346000Y-90646000D01*
%TO.C,R19*%
X143764000Y-83336000D02*
X143764000Y-84106000D01*
X142394000Y-84106000D02*
X142394000Y-90646000D01*
X142394000Y-90646000D02*
X145134000Y-90646000D01*
X145134000Y-90646000D02*
X145134000Y-84106000D01*
X145134000Y-84106000D02*
X142394000Y-84106000D01*
X143764000Y-91416000D02*
X143764000Y-90646000D01*
%TO.C,R5*%
X115800000Y-69088000D02*
X115030000Y-69088000D01*
X115030000Y-67718000D02*
X108490000Y-67718000D01*
X115030000Y-70458000D02*
X115030000Y-67718000D01*
X108490000Y-67718000D02*
X108490000Y-70458000D01*
X107720000Y-69088000D02*
X108490000Y-69088000D01*
X108490000Y-70458000D02*
X115030000Y-70458000D01*
%TO.C,C5*%
X145503888Y-99084000D02*
X145503888Y-100193000D01*
X145823888Y-99084000D02*
X145823888Y-99945000D01*
X144783888Y-95564000D02*
X144783888Y-97004000D01*
X144662888Y-95533000D02*
X144662888Y-97004000D01*
X144702888Y-99084000D02*
X144702888Y-100545000D01*
X145583888Y-95949000D02*
X145583888Y-97004000D01*
X145223888Y-99084000D02*
X145223888Y-100354000D01*
X146183888Y-96544000D02*
X146183888Y-99544000D01*
X144462888Y-95494000D02*
X144462888Y-97004000D01*
X145743888Y-99084000D02*
X145743888Y-100015000D01*
X144983888Y-99084000D02*
X144983888Y-100458000D01*
X146143888Y-96490000D02*
X146143888Y-99598000D01*
X144382888Y-95483000D02*
X144382888Y-97004000D01*
X145703888Y-99084000D02*
X145703888Y-100048000D01*
X141258113Y-96569000D02*
X141758113Y-96569000D01*
X145183888Y-95715000D02*
X145183888Y-97004000D01*
X144903888Y-99084000D02*
X144903888Y-100486000D01*
X146063888Y-99084000D02*
X146063888Y-99697000D01*
X145983888Y-96301000D02*
X145983888Y-97004000D01*
X145623888Y-99084000D02*
X145623888Y-100109000D01*
X145543888Y-99084000D02*
X145543888Y-100166000D01*
X145623888Y-95979000D02*
X145623888Y-97004000D01*
X146623888Y-97526000D02*
X146623888Y-98562000D01*
X144702888Y-95543000D02*
X144702888Y-97004000D01*
X145503888Y-95895000D02*
X145503888Y-97004000D01*
X144582888Y-95516000D02*
X144582888Y-97004000D01*
X145823888Y-96143000D02*
X145823888Y-97004000D01*
X145383888Y-99084000D02*
X145383888Y-100268000D01*
X144742888Y-95553000D02*
X144742888Y-97004000D01*
X145143888Y-95696000D02*
X145143888Y-97004000D01*
X145903888Y-99084000D02*
X145903888Y-99870000D01*
X145863888Y-99084000D02*
X145863888Y-99908000D01*
X145343888Y-95797000D02*
X145343888Y-97004000D01*
X144462888Y-99084000D02*
X144462888Y-100594000D01*
X144943888Y-99084000D02*
X144943888Y-100472000D01*
X146103888Y-96439000D02*
X146103888Y-99649000D01*
X145063888Y-99084000D02*
X145063888Y-100426000D01*
X144542888Y-95508000D02*
X144542888Y-97004000D01*
X145383888Y-95820000D02*
X145383888Y-97004000D01*
X145543888Y-95922000D02*
X145543888Y-97004000D01*
X145663888Y-99084000D02*
X145663888Y-100079000D01*
X145063888Y-95662000D02*
X145063888Y-97004000D01*
X144622888Y-95524000D02*
X144622888Y-97004000D01*
X145223888Y-95734000D02*
X145223888Y-97004000D01*
X145703888Y-96040000D02*
X145703888Y-97004000D01*
X144222888Y-95468000D02*
X144222888Y-97004000D01*
X144182888Y-99084000D02*
X144182888Y-100622000D01*
X145023888Y-95646000D02*
X145023888Y-97004000D01*
X144142888Y-99084000D02*
X144142888Y-100623000D01*
X144102888Y-99084000D02*
X144102888Y-100624000D01*
X144502888Y-99084000D02*
X144502888Y-100587000D01*
X145263888Y-95754000D02*
X145263888Y-97004000D01*
X144502888Y-95501000D02*
X144502888Y-97004000D01*
X145103888Y-95679000D02*
X145103888Y-97004000D01*
X145663888Y-96009000D02*
X145663888Y-97004000D01*
X146543888Y-97239000D02*
X146543888Y-98849000D01*
X145423888Y-95844000D02*
X145423888Y-97004000D01*
X144542888Y-99084000D02*
X144542888Y-100580000D01*
X145303888Y-99084000D02*
X145303888Y-100312000D01*
X144742888Y-99084000D02*
X144742888Y-100535000D01*
X144382888Y-99084000D02*
X144382888Y-100605000D01*
X144142888Y-95465000D02*
X144142888Y-97004000D01*
X146263888Y-96661000D02*
X146263888Y-99427000D01*
X146663888Y-97760000D02*
X146663888Y-98328000D01*
X146383888Y-96866000D02*
X146383888Y-99222000D01*
X144863888Y-95589000D02*
X144863888Y-97004000D01*
X146463888Y-97033000D02*
X146463888Y-99055000D01*
X146063888Y-96391000D02*
X146063888Y-97004000D01*
X146423888Y-96946000D02*
X146423888Y-99142000D01*
X144262888Y-99084000D02*
X144262888Y-100617000D01*
X144903888Y-95602000D02*
X144903888Y-97004000D01*
X144342888Y-95479000D02*
X144342888Y-97004000D01*
X146023888Y-96345000D02*
X146023888Y-97004000D01*
X144943888Y-95616000D02*
X144943888Y-97004000D01*
X145023888Y-99084000D02*
X145023888Y-100442000D01*
X145463888Y-95869000D02*
X145463888Y-97004000D01*
X144983888Y-95630000D02*
X144983888Y-97004000D01*
X144342888Y-99084000D02*
X144342888Y-100609000D01*
X145583888Y-99084000D02*
X145583888Y-100139000D01*
X146343888Y-96793000D02*
X146343888Y-99295000D01*
X145863888Y-96180000D02*
X145863888Y-97004000D01*
X145303888Y-95776000D02*
X145303888Y-97004000D01*
X146223888Y-96601000D02*
X146223888Y-99487000D01*
X145183888Y-99084000D02*
X145183888Y-100373000D01*
X144062888Y-99084000D02*
X144062888Y-100624000D01*
X144422888Y-99084000D02*
X144422888Y-100600000D01*
X145783888Y-96107000D02*
X145783888Y-97004000D01*
X144823888Y-99084000D02*
X144823888Y-100512000D01*
X144262888Y-95471000D02*
X144262888Y-97004000D01*
X144182888Y-95466000D02*
X144182888Y-97004000D01*
X144302888Y-99084000D02*
X144302888Y-100613000D01*
X144062888Y-95464000D02*
X144062888Y-97004000D01*
X146023888Y-99084000D02*
X146023888Y-99743000D01*
X144783888Y-99084000D02*
X144783888Y-100524000D01*
X146583888Y-97367000D02*
X146583888Y-98721000D01*
X145983888Y-99084000D02*
X145983888Y-99787000D01*
X145343888Y-99084000D02*
X145343888Y-100291000D01*
X145423888Y-99084000D02*
X145423888Y-100244000D01*
X144622888Y-99084000D02*
X144622888Y-100564000D01*
X146503888Y-97129000D02*
X146503888Y-98959000D01*
X145263888Y-99084000D02*
X145263888Y-100334000D01*
X145783888Y-99084000D02*
X145783888Y-99981000D01*
X145903888Y-96218000D02*
X145903888Y-97004000D01*
X144823888Y-95576000D02*
X144823888Y-97004000D01*
X145943888Y-99084000D02*
X145943888Y-99829000D01*
X144302888Y-95475000D02*
X144302888Y-97004000D01*
X144222888Y-99084000D02*
X144222888Y-100620000D01*
X145103888Y-99084000D02*
X145103888Y-100409000D01*
X145143888Y-99084000D02*
X145143888Y-100392000D01*
X141508113Y-96319000D02*
X141508113Y-96819000D01*
X146303888Y-96725000D02*
X146303888Y-99363000D01*
X144863888Y-99084000D02*
X144863888Y-100499000D01*
X144102888Y-95464000D02*
X144102888Y-97004000D01*
X144582888Y-99084000D02*
X144582888Y-100572000D01*
X145463888Y-99084000D02*
X145463888Y-100219000D01*
X144422888Y-95488000D02*
X144422888Y-97004000D01*
X145943888Y-96259000D02*
X145943888Y-97004000D01*
X144662888Y-99084000D02*
X144662888Y-100555000D01*
X145743888Y-96073000D02*
X145743888Y-97004000D01*
X146682888Y-98044000D02*
G75*
G03*
X146682888Y-98044000I-2620000J0D01*
G01*
%TO.C,U2*%
X132444000Y-85030000D02*
X130794000Y-85030000D01*
X127144000Y-95310000D02*
X132444000Y-95310000D01*
X134934000Y-84970000D02*
X124654000Y-84970000D01*
X124654000Y-95370000D02*
X134934000Y-95370000D01*
X128794000Y-85030000D02*
X127144000Y-85030000D01*
X132444000Y-95310000D02*
X132444000Y-85030000D01*
X124654000Y-84970000D02*
X124654000Y-95370000D01*
X127144000Y-85030000D02*
X127144000Y-95310000D01*
X134934000Y-95370000D02*
X134934000Y-84970000D01*
X128794000Y-85030000D02*
G75*
G03*
X130794000Y-85030000I1000000J0D01*
G01*
%TD*%
M02*
